<svg width="18" height="16" viewBox="0 0 18 16" fill="none" xmlns="http://www.w3.org/2000/svg">
<path fill-rule="evenodd" clip-rule="evenodd" d="M12.4235 1.03896V0H11.1529V1.03896H6.84707V0H5.57648V1.03896H0V16H18V1.03896H12.4235ZM5.5765 2.28577V3.32473H6.84708V2.28577H11.153V3.11694H12.4236V2.28577H16.7294V4.36369H1.2706V2.28577H5.5765ZM1.2706 5.61035V14.7532H16.7294V5.61035H1.2706ZM3.99997 11H5.99997V13H3.99997V11ZM9.99994 11H7.99994V13H9.99994V11ZM11.9999 11H13.9999V13H11.9999V11ZM9.99994 7H7.99994V9H9.99994V7ZM11.9999 7H13.9999V9H11.9999V7ZM5.99997 7H3.99997V9H5.99997V7Z" fill="#D7DBE0"/>
</svg>
