<svg width="14" height="15" viewBox="0 0 14 15" fill="none" xmlns="http://www.w3.org/2000/svg">
    <path fill-rule="evenodd" clip-rule="evenodd" d="M5.36571 7.45726C5.36108 7.44017 5.35682 7.42301 5.35293 7.40579L0.629032 2.45756C0.158507 1.96469 0.167533 1.18632 0.64936 0.704494C1.14725 0.206603 1.95734 0.215996 2.44355 0.725298L7.0001 5.49823L11.5566 0.725298C12.0429 0.215996 12.8529 0.206603 13.3508 0.704494C13.8327 1.18632 13.8417 1.96469 13.3712 2.45756L8.64729 7.40577C8.64339 7.423 8.63913 7.44017 8.6345 7.45726L13.3608 12.3666C13.8348 12.8591 13.8274 13.6403 13.3441 14.1237C12.8476 14.6201 12.0403 14.6125 11.5533 14.1066L7.00011 9.37697L2.44687 14.1066C1.95991 14.6125 1.15263 14.6201 0.656147 14.1237C0.172834 13.6403 0.165411 12.8591 0.639452 12.3666L5.36571 7.45726Z" fill="#4378FF"/>
</svg>
