<svg width="16" height="16" viewBox="0 0 16 16" fill="none" xmlns="http://www.w3.org/2000/svg">
<path fill-rule="evenodd" clip-rule="evenodd" d="M0 8C0 3.584 3.584 0 8 0C12.416 0 16 3.584 16 8C16 12.416 12.416 16 8 16C3.584 16 0 12.416 0 8ZM7.27269 11.6364C7.27269 11.2347 7.59831 10.9091 7.99998 10.9091C8.40165 10.9091 8.72727 11.2347 8.72727 11.6364C8.72727 12.0381 8.40165 12.3637 7.99998 12.3637C7.59831 12.3637 7.27269 12.0381 7.27269 11.6364ZM8.72727 8.72728C8.72727 9.12894 8.40166 9.45455 8 9.45455C7.59834 9.45455 7.27273 9.12894 7.27273 8.72728V4.36364C7.27273 3.96198 7.59834 3.63637 8 3.63637C8.40166 3.63637 8.72727 3.96198 8.72727 4.36364V8.72728Z" fill="#EF5E70"/>
</svg>
