<svg width="32" height="32" viewBox="0 0 32 32" fill="none" xmlns="http://www.w3.org/2000/svg">
<path fill-rule="evenodd" clip-rule="evenodd" d="M14.3657 16.4573C14.3611 16.4402 14.3568 16.423 14.3529 16.4058L9.62903 11.4576C9.15851 10.9647 9.16753 10.1863 9.64936 9.70449C10.1473 9.2066 10.9573 9.216 11.4436 9.7253L16.0001 14.4982L20.5566 9.7253C21.0429 9.216 21.8529 9.2066 22.3508 9.70449C22.8327 10.1863 22.8417 10.9647 22.3712 11.4576L17.6473 16.4058C17.6434 16.423 17.6391 16.4402 17.6345 16.4573L22.3608 21.3666C22.8348 21.8591 22.8274 22.6403 22.3441 23.1237C21.8476 23.6201 21.0403 23.6125 20.5533 23.1066L16.0001 18.377L11.4469 23.1066C10.9599 23.6125 10.1526 23.6201 9.65615 23.1237C9.17283 22.6403 9.16541 21.8591 9.63945 21.3666L14.3657 16.4573Z" fill="#4378FF"/>
</svg>
