<svg width="8" height="8" viewBox="0 0 8 8" fill="none" xmlns="http://www.w3.org/2000/svg">
<path fill-rule="evenodd" clip-rule="evenodd" d="M3.18281 4.22862C3.18051 4.22011 3.17838 4.21157 3.17644 4.20299L0.814426 1.7288C0.579164 1.48237 0.583676 1.09318 0.82459 0.852269C1.07354 0.603324 1.47858 0.60802 1.72169 0.862671L3.99999 3.24917L6.2783 0.862671C6.5214 0.60802 6.92645 0.603324 7.17539 0.852269C7.41631 1.09318 7.42082 1.48237 7.18556 1.7288L4.82356 4.20297C4.82162 4.21155 4.81949 4.2201 4.81719 4.22862L7.18034 6.68334C7.41736 6.92954 7.41365 7.32018 7.17199 7.56184C6.92375 7.81008 6.52011 7.80624 6.27664 7.55333L4 5.18849L1.72336 7.55333C1.47989 7.80624 1.07624 7.81008 0.828005 7.56184C0.586348 7.32018 0.582636 6.92954 0.819657 6.68334L3.18281 4.22862Z" fill="#D0D1D7"/>
</svg>
