<svg width="24" height="24" viewBox="0 0 24 24" fill="none" xmlns="http://www.w3.org/2000/svg">
    <path d="M15.5401 13.6812C17.7441 10.6301 17.007 6.4052 13.8948 4.24501C10.7827 2.08483 6.47331 2.80696 4.26992 5.85857C2.06652 8.90967 2.80309 13.134 5.91575 15.2942C8.13705 16.836 11.0739 16.9547 13.4168 15.5982L18.5075 20.5592C19.0571 21.1265 19.9717 21.1492 20.5503 20.6103C21.1289 20.0719 21.1521 19.1753 20.6029 18.608C20.5856 18.59 20.5687 18.5735 20.5503 18.5564L15.5401 13.6812ZM9.90081 14.1437C7.44154 14.1442 5.44769 12.191 5.44611 9.77994C5.44559 7.36889 7.43786 5.41415 9.89766 5.41311C12.3538 5.41208 14.3466 7.36218 14.3513 9.77013C14.3555 12.1817 12.3643 14.1395 9.90397 14.1437C9.90292 14.1437 9.90239 14.1437 9.90081 14.1437Z" fill="#4378FF"/>
</svg>
